<svg width="34" height="34" viewBox="0 0 34 34" fill="none" xmlns="http://www.w3.org/2000/svg">
<path d="M17.0002 0.333344C7.80016 0.333344 0.333496 7.80001 0.333496 17C0.333496 26.2 7.80016 33.6667 17.0002 33.6667C26.2002 33.6667 33.6668 26.2 33.6668 17C33.6668 7.80001 26.2002 0.333344 17.0002 0.333344ZM12.4835 24.15L6.50016 18.1667C6.34586 18.0124 6.22346 17.8292 6.13995 17.6276C6.05644 17.426 6.01346 17.2099 6.01346 16.9917C6.01346 16.7735 6.05644 16.5574 6.13995 16.3558C6.22346 16.1542 6.34586 15.971 6.50016 15.8167C6.65447 15.6624 6.83765 15.54 7.03926 15.4565C7.24086 15.373 7.45695 15.33 7.67516 15.33C7.89338 15.33 8.10946 15.373 8.31107 15.4565C8.51268 15.54 8.69586 15.6624 8.85016 15.8167L13.6668 20.6167L25.1335 9.15001C25.4451 8.83838 25.8678 8.66331 26.3085 8.66331C26.7492 8.66331 27.1719 8.83838 27.4835 9.15001C27.7951 9.46164 27.9702 9.8843 27.9702 10.325C27.9702 10.7657 27.7951 11.1884 27.4835 11.5L14.8335 24.15C14.6793 24.3045 14.4962 24.4271 14.2945 24.5107C14.0929 24.5944 13.8768 24.6374 13.6585 24.6374C13.4402 24.6374 13.2241 24.5944 13.0225 24.5107C12.8208 24.4271 12.6377 24.3045 12.4835 24.15Z" fill="#00536B"/>
</svg>
