<svg width="24" height="28" viewBox="0 0 24 28" fill="none" xmlns="http://www.w3.org/2000/svg">
<path fill-rule="evenodd" clip-rule="evenodd" d="M0 4C0 2.93913 0.421427 1.92172 1.17157 1.17157C1.92172 0.421427 2.93913 0 4 0H14.586C15.1164 0.000113275 15.625 0.210901 16 0.586L23.414 8C23.7891 8.37499 23.9999 8.88361 24 9.414V24C24 25.0609 23.5786 26.0783 22.8284 26.8284C22.0783 27.5786 21.0609 28 20 28H4C2.93913 28 1.92172 27.5786 1.17157 26.8284C0.421427 26.0783 0 25.0609 0 24V4ZM14 8V2L22 10H16C15.4696 10 14.9609 9.78929 14.5858 9.41421C14.2107 9.03914 14 8.53043 14 8ZM8.708 17.708C8.61502 17.801 8.50465 17.8747 8.38317 17.925C8.26169 17.9754 8.13149 18.0013 8 18.0013C7.86851 18.0013 7.73831 17.9754 7.61683 17.925C7.49535 17.8747 7.38498 17.801 7.292 17.708C7.19902 17.615 7.12527 17.5046 7.07495 17.3832C7.02463 17.2617 6.99874 17.1315 6.99874 17C6.99874 16.8685 7.02463 16.7383 7.07495 16.6168C7.12527 16.4954 7.19902 16.385 7.292 16.292L11.292 12.292C11.3849 12.1989 11.4952 12.125 11.6167 12.0746C11.7382 12.0242 11.8685 11.9982 12 11.9982C12.1315 11.9982 12.2618 12.0242 12.3833 12.0746C12.5048 12.125 12.6151 12.1989 12.708 12.292L16.708 16.292C16.801 16.385 16.8747 16.4954 16.925 16.6168C16.9754 16.7383 17.0013 16.8685 17.0013 17C17.0013 17.1315 16.9754 17.2617 16.925 17.3832C16.8747 17.5046 16.801 17.615 16.708 17.708C16.615 17.801 16.5046 17.8747 16.3832 17.925C16.2617 17.9754 16.1315 18.0013 16 18.0013C15.8685 18.0013 15.7383 17.9754 15.6168 17.925C15.4954 17.8747 15.385 17.801 15.292 17.708L13 15.414V23C13 23.2652 12.8946 23.5196 12.7071 23.7071C12.5196 23.8946 12.2652 24 12 24C11.7348 24 11.4804 23.8946 11.2929 23.7071C11.1054 23.5196 11 23.2652 11 23V15.414L8.708 17.708Z" fill="#00536B"/>
</svg>
