<svg width="20" height="20" viewBox="0 0 20 20" fill="none" xmlns="http://www.w3.org/2000/svg">
<path d="M10.0002 0C4.48021 0 0.000213623 4.48 0.000213623 10C0.000213623 15.52 4.48021 20 10.0002 20C15.5202 20 20.0002 15.52 20.0002 10C20.0002 4.48 15.5202 0 10.0002 0ZM7.29021 14.29L3.70021 10.7C3.60763 10.6074 3.53419 10.4975 3.48409 10.3765C3.43398 10.2556 3.40819 10.1259 3.40819 9.995C3.40819 9.86407 3.43398 9.73442 3.48409 9.61346C3.53419 9.49249 3.60763 9.38258 3.70021 9.29C3.7928 9.19742 3.90271 9.12398 4.02367 9.07387C4.14463 9.02377 4.27428 8.99798 4.40521 8.99798C4.53614 8.99798 4.66579 9.02377 4.78676 9.07387C4.90772 9.12398 5.01763 9.19742 5.11021 9.29L8.00021 12.17L14.8802 5.29C15.0672 5.10302 15.3208 4.99798 15.5852 4.99798C15.8496 4.99798 16.1032 5.10302 16.2902 5.29C16.4772 5.47698 16.5822 5.73057 16.5822 5.995C16.5822 6.25943 16.4772 6.51302 16.2902 6.7L8.70021 14.29C8.6077 14.3827 8.49781 14.4563 8.37684 14.5064C8.25586 14.5566 8.12618 14.5824 7.99521 14.5824C7.86425 14.5824 7.73456 14.5566 7.61359 14.5064C7.49262 14.4563 7.38273 14.3827 7.29021 14.29Z" fill="#00A6D6"/>
</svg>
